<svg xmlns="http://www.w3.org/2000/svg" version="1.1" xmlns:xlink="http://www.w3.org/1999/xlink" xmlns:svgjs="http://svgjs.com/svgjs" width="1920" height="1080" preserveAspectRatio="none" viewBox="0 0 1920 1080"><g mask="url(&quot;#SvgjsMask1075&quot;)" fill="none"><rect width="1920" height="1080" x="0" y="0" fill="rgba(174, 215, 250, 1)"></rect><path d="M0,437.096C108.472,455.765,227.623,557.669,318.25,495.207C409.901,432.039,343.212,278.739,381.442,174.199C415.247,81.76,523.31,22.575,527.06,-75.78C530.944,-177.649,466.466,-269.335,401.342,-347.765C335.241,-427.372,254.722,-500.676,154.127,-524.91C55.483,-548.674,-49.932,-524.155,-140.437,-478.284C-222.291,-436.798,-274.028,-357.989,-325.335,-281.905C-371.261,-213.8,-398.114,-139.261,-422.043,-60.681C-450.218,31.841,-510.811,127.276,-477.599,218.112C-444.254,309.311,-343.128,356.098,-254.86,396.57C-175.05,433.164,-86.527,422.204,0,437.096" fill="#8ac5f8"></path><path d="M1920 1854.7849999999999C2067.645 1868.8519999999999 2204.067 1794.315 2337.6549999999997 1729.884 2487.965 1657.387 2665.288 1603.366 2745.117 1456.818 2826.059 1308.226 2781.0119999999997 1127.152 2757.2380000000003 959.623 2733.423 791.809 2713.526 616.539 2607.1459999999997 484.58500000000004 2499.074 350.53200000000004 2341.558 235.26599999999996 2169.433 230.50900000000001 2003.182 225.91499999999996 1896.989 411.36699999999996 1738.119 460.56899999999996 1582.981 508.615 1377.797 395.76700000000005 1263.4450000000002 511.092 1150.7469999999998 624.749 1228.02 819.8340000000001 1223.2469999999998 979.822 1219.065 1120.018 1175.982 1265.631 1237.171 1391.838 1297.899 1517.093 1435.325 1576.774 1550.541 1654.8890000000001 1668.834 1735.0900000000001 1777.726 1841.229 1920 1854.7849999999999" fill="#d2e9fc"></path></g><defs><mask id="SvgjsMask1075"><rect width="1920" height="1080" fill="#ffffff"></rect></mask></defs></svg>